<svg xmlns="http://www.w3.org/2000/svg" xmlns:xlink="http://www.w3.org/1999/xlink" width="500" zoomAndPan="magnify" viewBox="0 0 375 374.999991" height="500" preserveAspectRatio="xMidYMid meet" version="1.0"><defs><g/><clipPath id="36553557d6"><path d="M 135.421875 96.316406 L 239.671875 96.316406 L 239.671875 191.566406 L 135.421875 191.566406 Z M 135.421875 96.316406 " clip-rule="nonzero"/></clipPath></defs><g clip-path="url(#36553557d6)"><path fill="#000000" d="M 149.722656 142.1875 L 155.011719 133.027344 L 169.71875 107.550781 L 170.535156 106.136719 L 170.527344 106.132812 L 170.554688 106.078125 L 170.585938 106.027344 L 171.355469 104.816406 L 172.007812 103.921875 L 172.664062 103.117188 C 172.722656 103.050781 172.78125 102.980469 172.84375 102.917969 L 174.011719 101.710938 L 174.917969 100.90625 C 175.167969 100.695312 175.421875 100.496094 175.679688 100.300781 L 176.234375 99.902344 L 176.832031 99.5 L 177.480469 99.097656 L 177.828125 98.894531 L 179.464844 98.070312 L 180.378906 97.6875 C 180.753906 97.542969 181.132812 97.410156 181.511719 97.285156 L 182.425781 97.019531 L 183.90625 96.679688 C 184.347656 96.601562 184.785156 96.53125 185.230469 96.480469 C 187.539062 96.207031 189.820312 96.347656 192.082031 96.882812 C 192.957031 97.089844 193.808594 97.359375 194.644531 97.6875 L 195.148438 97.890625 L 196.425781 98.492188 L 197.527344 99.105469 L 197.542969 99.117188 L 197.699219 99.214844 L 198.273438 99.578125 L 199.007812 100.082031 L 199.566406 100.5 L 199.828125 100.707031 L 200.804688 101.550781 L 201.773438 102.515625 C 201.835938 102.582031 201.898438 102.648438 201.957031 102.714844 L 202.3125 103.117188 L 202.386719 103.203125 L 202.71875 103.601562 L 202.992188 103.949219 L 203.417969 104.527344 L 203.867188 105.1875 L 204.335938 105.9375 L 204.582031 106.371094 L 204.789062 106.742188 L 236.734375 162.070312 L 236.898438 162.320312 L 237.121094 162.722656 L 237.304688 163.082031 L 237.347656 163.160156 L 237.890625 164.289062 L 237.894531 164.292969 L 238.308594 165.292969 C 238.332031 165.363281 238.355469 165.425781 238.382812 165.496094 L 238.535156 165.925781 L 238.949219 167.308594 C 238.96875 167.375 238.984375 167.441406 239 167.507812 L 239.296875 168.914062 C 239.308594 168.984375 239.320312 169.050781 239.332031 169.117188 L 239.453125 170.011719 L 239.503906 170.523438 C 239.511719 170.59375 239.515625 170.660156 239.519531 170.726562 L 239.578125 172.132812 C 239.578125 172.199219 239.578125 172.269531 239.578125 172.335938 L 239.515625 173.742188 C 239.511719 173.808594 239.503906 173.875 239.5 173.941406 L 239.460938 174.34375 L 239.253906 175.753906 C 239.242188 175.820312 239.230469 175.886719 239.21875 175.953125 L 239.109375 176.476562 L 238.71875 177.964844 L 238.65625 178.164062 L 238.449219 178.769531 L 238.292969 179.195312 C 238.03125 179.890625 237.710938 180.605469 237.367188 181.265625 L 236.394531 182.929688 L 235.882812 183.679688 L 235.496094 184.199219 C 235.441406 184.269531 235.390625 184.335938 235.339844 184.402344 L 234.109375 185.808594 C 234.042969 185.875 233.976562 185.945312 233.914062 186.011719 L 233.066406 186.8125 C 232.835938 187.019531 232.601562 187.222656 232.359375 187.417969 L 231.847656 187.820312 L 231.578125 188.019531 C 231.390625 188.160156 231.199219 188.292969 231.007812 188.421875 L 230.109375 189.011719 L 229.375 189.425781 L 228.792969 189.730469 C 227.902344 190.175781 227.066406 190.527344 226.113281 190.839844 C 225.652344 190.992188 225.1875 191.128906 224.71875 191.242188 L 223.820312 191.445312 C 223.417969 191.523438 223.015625 191.589844 222.609375 191.644531 C 220.878906 191.871094 219.183594 191.878906 217.429688 191.644531 L 217.425781 191.644531 L 216.171875 191.4375 C 215.015625 191.207031 213.878906 190.871094 212.785156 190.4375 L 211.25 189.753906 L 210.269531 189.230469 L 209.28125 188.625 L 208.410156 188.023438 L 208.027344 187.738281 L 206.921875 186.816406 L 206.671875 186.585938 L 206.074219 186.011719 C 206.011719 185.945312 205.945312 185.878906 205.878906 185.8125 L 204.980469 184.804688 C 204.921875 184.738281 204.867188 184.671875 204.8125 184.605469 L 204.492188 184.203125 L 204.378906 184.054688 L 203.90625 183.398438 L 203.839844 183.304688 L 203.300781 182.476562 L 203.265625 182.421875 L 202.882812 181.789062 L 202.652344 181.386719 L 185.03125 150.863281 L 181.273438 144.363281 L 180.476562 142.953125 C 180.445312 142.886719 180.414062 142.820312 180.386719 142.753906 L 180.304688 142.554688 L 180.089844 141.746094 C 180.078125 141.679688 180.070312 141.613281 180.058594 141.546875 C 180.015625 141.214844 180.011719 140.871094 180.042969 140.539062 C 180.046875 140.472656 180.054688 140.40625 180.066406 140.339844 L 180.09375 140.164062 L 180.324219 139.332031 C 180.351562 139.265625 180.378906 139.195312 180.40625 139.128906 L 180.5 138.929688 C 180.535156 138.863281 180.566406 138.792969 180.605469 138.730469 L 181.007812 138.125 C 181.0625 138.058594 181.117188 137.988281 181.171875 137.925781 C 181.441406 137.617188 181.761719 137.34375 182.109375 137.121094 L 182.34375 136.980469 C 182.710938 136.769531 183.097656 136.617188 183.488281 136.515625 L 183.492188 136.515625 C 184.238281 136.328125 185.003906 136.335938 185.726562 136.515625 L 186.339844 136.71875 C 186.609375 136.828125 186.867188 136.960938 187.113281 137.121094 C 187.300781 137.242188 187.476562 137.375 187.644531 137.523438 C 187.785156 137.648438 187.921875 137.78125 188.046875 137.925781 C 188.105469 137.988281 188.160156 138.054688 188.214844 138.125 L 188.617188 138.730469 L 193.144531 146.570312 L 210.964844 177.433594 L 210.957031 177.4375 L 211.152344 177.761719 C 211.195312 177.832031 211.238281 177.898438 211.28125 177.964844 L 211.652344 178.492188 L 212.398438 179.371094 L 212.59375 179.574219 C 212.804688 179.785156 213.023438 179.984375 213.25 180.175781 L 213.652344 180.496094 L 214.304688 180.953125 L 215.449219 181.589844 C 215.945312 181.828125 216.472656 182.03125 217.003906 182.1875 C 217.683594 182.394531 218.378906 182.527344 219.085938 182.589844 C 219.851562 182.660156 220.625 182.648438 221.386719 182.550781 L 222.308594 182.386719 C 222.5625 182.332031 222.820312 182.265625 223.074219 182.1875 C 223.738281 181.984375 224.378906 181.714844 224.992188 181.382812 C 225.042969 181.355469 225.097656 181.324219 225.152344 181.292969 L 225.34375 181.179688 L 225.964844 180.777344 L 226.242188 180.578125 C 226.328125 180.515625 226.410156 180.453125 226.492188 180.386719 L 226.972656 179.976562 L 227.257812 179.707031 L 227.769531 179.171875 C 227.824219 179.105469 227.886719 179.039062 227.941406 178.96875 L 228.40625 178.367188 L 228.625 178.050781 L 228.8125 177.761719 L 229.15625 177.160156 L 229.359375 176.757812 C 229.390625 176.691406 229.421875 176.625 229.453125 176.558594 L 229.707031 175.953125 L 229.914062 175.351562 L 230.03125 174.949219 L 230.085938 174.746094 L 230.175781 174.34375 C 230.1875 174.277344 230.203125 174.210938 230.214844 174.144531 L 230.355469 173.136719 C 230.367188 173.003906 230.375 172.871094 230.382812 172.734375 C 230.386719 172.667969 230.390625 172.601562 230.390625 172.535156 C 230.398438 172.402344 230.398438 172.265625 230.398438 172.132812 L 230.34375 171.128906 C 230.332031 170.996094 230.316406 170.859375 230.296875 170.726562 C 230.289062 170.65625 230.28125 170.589844 230.265625 170.523438 L 230.195312 170.121094 L 229.9375 169.117188 L 229.804688 168.714844 C 229.78125 168.648438 229.753906 168.578125 229.730469 168.515625 C 229.65625 168.308594 229.570312 168.109375 229.480469 167.910156 L 229.183594 167.308594 L 229.074219 167.105469 L 228.957031 166.90625 L 196.894531 111.371094 L 196.539062 110.765625 C 196.5 110.699219 196.460938 110.632812 196.417969 110.566406 L 196.292969 110.363281 C 196.25 110.296875 196.203125 110.226562 196.160156 110.164062 L 196.023438 109.960938 C 195.972656 109.894531 195.925781 109.828125 195.875 109.761719 L 195.390625 109.15625 L 195.019531 108.753906 L 194.753906 108.488281 L 194.144531 107.949219 L 193.777344 107.660156 L 193.015625 107.140625 L 192.664062 106.933594 L 191.542969 106.386719 L 190.335938 105.96875 L 189.304688 105.734375 C 188.097656 105.519531 186.847656 105.515625 185.625 105.734375 L 184.730469 105.933594 C 184.019531 106.128906 183.332031 106.398438 182.679688 106.738281 L 182.3125 106.941406 L 181.9375 107.140625 L 181.179688 107.667969 L 180.730469 108.023438 C 180.257812 108.429688 179.820312 108.871094 179.425781 109.355469 L 178.578125 110.558594 C 178.546875 110.613281 178.511719 110.667969 178.480469 110.722656 L 178.472656 110.71875 L 162.132812 139.027344 L 160.335938 142.140625 L 160.3125 142.179688 L 155.023438 151.339844 L 152.15625 156.304688 L 151.613281 157.242188 L 146.5 166.097656 L 146.132812 166.738281 L 145.941406 167.082031 L 145.9375 167.082031 L 145.921875 167.105469 L 145.433594 168.109375 C 145.402344 168.175781 145.378906 168.242188 145.351562 168.308594 C 145.273438 168.507812 145.199219 168.710938 145.132812 168.914062 L 145.03125 169.246094 L 144.957031 169.519531 L 144.816406 170.121094 C 144.792969 170.253906 144.769531 170.390625 144.746094 170.523438 C 144.738281 170.59375 144.726562 170.65625 144.71875 170.726562 C 144.699219 170.859375 144.683594 170.996094 144.671875 171.128906 L 144.632812 171.730469 C 144.628906 171.863281 144.625 172 144.625 172.132812 C 144.625 172.199219 144.625 172.265625 144.628906 172.335938 L 144.644531 172.734375 L 144.683594 173.246094 L 144.75 173.742188 C 144.761719 173.808594 144.769531 173.878906 144.785156 173.941406 L 144.863281 174.34375 L 144.957031 174.746094 L 145.007812 174.949219 C 145.027344 175.015625 145.046875 175.082031 145.066406 175.148438 L 145.339844 175.953125 L 145.59375 176.558594 C 145.625 176.625 145.65625 176.691406 145.6875 176.757812 L 145.785156 176.957031 C 145.820312 177.027344 145.859375 177.09375 145.890625 177.160156 L 146.117188 177.5625 L 146.492188 178.148438 L 146.953125 178.769531 L 147.480469 179.375 C 147.542969 179.441406 147.609375 179.511719 147.675781 179.574219 C 147.886719 179.785156 148.105469 179.984375 148.332031 180.179688 L 148.84375 180.582031 L 149.175781 180.820312 L 149.425781 180.984375 L 150.136719 181.386719 C 150.414062 181.535156 150.695312 181.667969 150.980469 181.789062 C 152.570312 182.457031 154.300781 182.707031 156.019531 182.535156 C 156.351562 182.503906 156.683594 182.457031 157.015625 182.390625 L 157.863281 182.1875 L 158.113281 182.117188 L 159.179688 181.722656 C 159.664062 181.519531 160.148438 181.261719 160.597656 180.984375 L 161.195312 180.582031 L 162.175781 179.777344 L 162.386719 179.574219 L 162.769531 179.171875 L 162.96875 178.949219 L 163.113281 178.769531 L 163.707031 177.96875 L 164.078125 177.363281 C 164.15625 177.230469 164.226562 177.097656 164.300781 176.960938 L 164.496094 176.558594 L 164.574219 176.375 L 164.738281 175.988281 L 165.027344 175.152344 L 165.234375 174.347656 C 165.246094 174.28125 165.261719 174.214844 165.273438 174.144531 L 165.339844 173.746094 L 165.414062 173.140625 L 165.441406 172.792969 L 165.441406 172.734375 L 165.457031 172.335938 C 165.457031 172.265625 165.457031 172.199219 165.457031 172.132812 L 165.398438 171.128906 C 165.390625 171.058594 165.382812 170.992188 165.375 170.925781 L 165.347656 170.730469 L 165.195312 169.917969 C 165.179688 169.851562 165.164062 169.785156 165.148438 169.71875 L 165.039062 169.316406 C 165 169.179688 164.960938 169.046875 164.914062 168.914062 L 164.773438 168.511719 L 164.609375 168.109375 L 164.265625 167.394531 L 164.46875 167.742188 L 163.667969 166.335938 C 163.636719 166.269531 163.605469 166.203125 163.578125 166.136719 L 163.5 165.9375 L 163.28125 165.128906 C 163.273438 165.0625 163.261719 164.996094 163.25 164.929688 C 163.210938 164.597656 163.203125 164.253906 163.234375 163.921875 C 163.242188 163.855469 163.25 163.789062 163.257812 163.722656 L 163.289062 163.546875 L 163.519531 162.714844 C 163.535156 162.644531 163.570312 162.578125 163.597656 162.511719 L 163.691406 162.3125 C 163.722656 162.242188 163.761719 162.175781 163.796875 162.109375 L 164.199219 161.507812 C 164.253906 161.441406 164.308594 161.371094 164.367188 161.304688 C 164.636719 161 164.957031 160.722656 165.304688 160.503906 L 165.535156 160.359375 C 165.90625 160.152344 166.292969 160 166.683594 159.898438 L 166.6875 159.898438 C 167.429688 159.710938 168.199219 159.71875 168.921875 159.898438 L 169.535156 160.101562 C 169.808594 160.1875 170.0625 160.34375 170.308594 160.503906 C 170.492188 160.621094 170.671875 160.757812 170.835938 160.902344 C 170.980469 161.03125 171.113281 161.164062 171.238281 161.304688 C 171.296875 161.371094 171.351562 161.4375 171.40625 161.507812 L 171.808594 162.109375 L 172.472656 163.257812 L 172.585938 163.484375 C 172.6875 163.683594 172.78125 163.882812 172.871094 164.085938 L 173.003906 164.390625 L 173.132812 164.691406 C 173.214844 164.894531 173.296875 165.09375 173.371094 165.296875 L 173.460938 165.542969 L 173.585938 165.898438 L 173.777344 166.503906 C 173.800781 166.570312 173.816406 166.636719 173.839844 166.703125 C 173.894531 166.90625 173.949219 167.105469 174.003906 167.308594 C 174.019531 167.375 174.035156 167.441406 174.050781 167.507812 L 174.191406 168.113281 C 174.203125 168.179688 174.21875 168.246094 174.234375 168.3125 L 174.34375 168.914062 L 174.464844 169.71875 C 174.472656 169.789062 174.480469 169.851562 174.488281 169.921875 L 174.546875 170.523438 C 174.554688 170.59375 174.558594 170.65625 174.5625 170.726562 L 174.609375 171.53125 L 174.609375 172.9375 C 174.605469 173.003906 174.601562 173.070312 174.601562 173.136719 C 174.589844 173.339844 174.578125 173.539062 174.5625 173.742188 C 174.558594 173.808594 174.554688 173.875 174.546875 173.941406 C 174.53125 174.144531 174.507812 174.34375 174.484375 174.546875 C 174.476562 174.613281 174.46875 174.679688 174.460938 174.746094 C 174.433594 174.949219 174.40625 175.148438 174.371094 175.351562 C 174.359375 175.417969 174.351562 175.484375 174.335938 175.550781 L 174.222656 176.15625 L 174.039062 176.957031 L 173.878906 177.5625 L 173.695312 178.164062 C 173.671875 178.234375 173.648438 178.296875 173.628906 178.367188 C 173.5625 178.566406 173.492188 178.769531 173.417969 178.96875 L 173.304688 179.273438 L 172.925781 180.179688 C 172.898438 180.246094 172.867188 180.3125 172.835938 180.378906 L 172.546875 180.984375 C 172.476562 181.117188 172.410156 181.25 172.335938 181.386719 L 171.996094 182 L 171.382812 182.992188 C 171.339844 183.0625 171.292969 183.125 171.25 183.195312 L 170.824219 183.796875 L 170.316406 184.457031 L 170.253906 184.535156 L 169.863281 185.003906 C 169.804688 185.070312 169.746094 185.140625 169.6875 185.207031 L 169.507812 185.40625 L 168.851562 186.09375 L 168.308594 186.613281 L 168.089844 186.8125 L 167.625 187.214844 C 167.375 187.425781 167.121094 187.625 166.867188 187.820312 L 166.316406 188.222656 L 165.796875 188.574219 L 164.726562 189.226562 L 163.148438 190.03125 C 162.472656 190.339844 161.78125 190.609375 161.070312 190.835938 L 160.101562 191.121094 L 158.722656 191.4375 C 158.027344 191.570312 157.328125 191.667969 156.621094 191.726562 C 155.277344 191.835938 153.949219 191.808594 152.601562 191.640625 C 151.804688 191.539062 151.160156 191.414062 150.410156 191.238281 L 149.648438 191.035156 C 148.84375 190.804688 148.179688 190.558594 147.363281 190.222656 L 146.09375 189.625 L 144.96875 188.992188 L 144.945312 188.980469 L 144.121094 188.457031 L 143.492188 188.019531 C 143.3125 187.886719 143.132812 187.753906 142.957031 187.617188 L 141.992188 186.8125 L 141.140625 186.007812 C 141.074219 185.941406 141.003906 185.875 140.941406 185.804688 L 140.03125 184.800781 C 139.972656 184.734375 139.917969 184.667969 139.863281 184.597656 L 139.542969 184.195312 L 139.472656 184.101562 L 138.8125 183.191406 L 138.546875 182.789062 C 138.5 182.71875 138.460938 182.652344 138.417969 182.585938 L 138.300781 182.398438 L 137.941406 181.78125 L 137.828125 181.582031 L 137.429688 180.808594 L 136.941406 179.730469 L 136.636719 178.964844 L 136.425781 178.359375 C 136.402344 178.292969 136.382812 178.226562 136.359375 178.160156 L 136.234375 177.757812 L 136.089844 177.238281 L 135.875 176.351562 C 135.859375 176.28125 135.84375 176.214844 135.832031 176.148438 L 135.59375 174.742188 C 135.585938 174.675781 135.578125 174.609375 135.570312 174.539062 L 135.453125 173.132812 C 135.449219 173.066406 135.445312 173 135.445312 172.933594 L 135.441406 171.523438 C 135.445312 171.457031 135.445312 171.390625 135.449219 171.324219 L 135.539062 170.117188 L 135.5625 169.914062 C 135.570312 169.847656 135.578125 169.78125 135.585938 169.714844 L 135.601562 169.605469 L 135.742188 168.710938 C 135.757812 168.640625 135.769531 168.574219 135.78125 168.507812 L 136.105469 167.101562 C 136.125 167.03125 136.144531 166.964844 136.160156 166.898438 L 136.296875 166.441406 L 136.617188 165.488281 C 136.640625 165.421875 136.667969 165.355469 136.695312 165.289062 L 137.042969 164.433594 L 137.105469 164.28125 L 137.222656 164.023438 L 137.488281 163.476562 C 137.523438 163.410156 137.554688 163.34375 137.589844 163.273438 L 137.695312 163.074219 L 138.121094 162.304688 L 138.117188 162.296875 L 138.261719 162.066406 L 147.671875 145.769531 L 149.6875 142.28125 L 149.75 142.175781 Z M 149.722656 142.1875 " fill-opacity="1" fill-rule="evenodd"/></g><g fill="#000000" fill-opacity="1"><g transform="translate(77.826282, 235.709588)"><g><path d="M 10.5625 -23.28125 C 12 -23.28125 13.257812 -22.941406 14.34375 -22.265625 C 15.425781 -21.597656 16.332031 -20.488281 17.0625 -18.9375 C 17.789062 -17.394531 18.347656 -15.320312 18.734375 -12.71875 C 19.117188 -10.113281 19.34375 -6.867188 19.40625 -2.984375 C 19.425781 -2.035156 19.191406 -1.300781 18.703125 -0.78125 C 18.222656 -0.257812 17.53125 0 16.625 0 L 16.125 0 C 14.25 0 13.3125 -0.859375 13.3125 -2.578125 C 13.3125 -3.023438 13.3125 -3.457031 13.3125 -3.875 C 13.3125 -4.289062 13.300781 -4.710938 13.28125 -5.140625 L 7.421875 -5.140625 C 7.421875 -4.785156 7.414062 -4.410156 7.40625 -4.015625 C 7.394531 -3.628906 7.390625 -3.226562 7.390625 -2.8125 C 7.390625 -0.9375 6.460938 0 4.609375 0 C 3.722656 0 3.035156 -0.238281 2.546875 -0.71875 C 2.066406 -1.207031 1.835938 -1.914062 1.859375 -2.84375 C 1.878906 -3.75 1.898438 -4.609375 1.921875 -5.421875 C 1.941406 -6.242188 1.972656 -7.03125 2.015625 -7.78125 C 2.285156 -11.6875 2.78125 -14.769531 3.5 -17.03125 C 4.21875 -19.300781 5.164062 -20.910156 6.34375 -21.859375 C 7.519531 -22.804688 8.925781 -23.28125 10.5625 -23.28125 Z M 7.484375 -9.078125 L 13.15625 -9.078125 C 13.019531 -11.546875 12.816406 -13.46875 12.546875 -14.84375 C 12.285156 -16.226562 11.953125 -17.203125 11.546875 -17.765625 C 11.140625 -18.328125 10.660156 -18.609375 10.109375 -18.609375 C 9.554688 -18.609375 9.097656 -18.328125 8.734375 -17.765625 C 8.367188 -17.203125 8.09375 -16.226562 7.90625 -14.84375 C 7.71875 -13.46875 7.578125 -11.546875 7.484375 -9.078125 Z M 7.484375 -9.078125 "/></g></g></g><g fill="#000000" fill-opacity="1"><g transform="translate(105.782226, 235.709588)"><g><path d="M 23.359375 -22.953125 C 25.234375 -22.953125 26.171875 -22.015625 26.171875 -20.140625 C 26.171875 -18.703125 26.164062 -17.257812 26.15625 -15.8125 C 26.144531 -14.363281 26.140625 -12.925781 26.140625 -11.5 C 26.140625 -10.039062 26.144531 -8.585938 26.15625 -7.140625 C 26.164062 -5.691406 26.171875 -4.25 26.171875 -2.8125 C 26.171875 -0.9375 25.234375 0 23.359375 0 L 22.75 0 C 20.875 0 19.9375 -0.9375 19.9375 -2.8125 C 19.957031 -4.25 19.972656 -5.691406 19.984375 -7.140625 C 19.992188 -8.585938 20 -10.039062 20 -11.5 L 19.96875 -15.859375 L 19.84375 -15.859375 L 16.0625 -4.9375 C 15.53125 -3.414062 14.722656 -2.65625 13.640625 -2.65625 C 12.535156 -2.65625 11.742188 -3.425781 11.265625 -4.96875 L 7.78125 -15.859375 L 7.625 -15.859375 C 7.644531 -13.859375 7.664062 -12.09375 7.6875 -10.5625 C 7.707031 -9.039062 7.734375 -7.660156 7.765625 -6.421875 C 7.796875 -5.191406 7.835938 -4 7.890625 -2.84375 C 7.929688 -1.914062 7.71875 -1.207031 7.25 -0.71875 C 6.789062 -0.238281 6.117188 0 5.234375 0 C 4.347656 0 3.664062 -0.238281 3.1875 -0.71875 C 2.71875 -1.207031 2.492188 -1.90625 2.515625 -2.8125 C 2.535156 -8.601562 2.535156 -14.378906 2.515625 -20.140625 C 2.492188 -21.046875 2.722656 -21.738281 3.203125 -22.21875 C 3.691406 -22.707031 4.390625 -22.953125 5.296875 -22.953125 L 8.34375 -22.953125 C 9.9375 -22.953125 11.007812 -22.210938 11.5625 -20.734375 L 14.40625 -13.21875 L 16.796875 -20.640625 C 17.273438 -22.179688 18.332031 -22.953125 19.96875 -22.953125 Z M 23.359375 -22.953125 "/></g></g></g><g fill="#000000" fill-opacity="1"><g transform="translate(141.124214, 235.709588)"><g><path d="M 10.5625 -23.28125 C 12 -23.28125 13.257812 -22.941406 14.34375 -22.265625 C 15.425781 -21.597656 16.332031 -20.488281 17.0625 -18.9375 C 17.789062 -17.394531 18.347656 -15.320312 18.734375 -12.71875 C 19.117188 -10.113281 19.34375 -6.867188 19.40625 -2.984375 C 19.425781 -2.035156 19.191406 -1.300781 18.703125 -0.78125 C 18.222656 -0.257812 17.53125 0 16.625 0 L 16.125 0 C 14.25 0 13.3125 -0.859375 13.3125 -2.578125 C 13.3125 -3.023438 13.3125 -3.457031 13.3125 -3.875 C 13.3125 -4.289062 13.300781 -4.710938 13.28125 -5.140625 L 7.421875 -5.140625 C 7.421875 -4.785156 7.414062 -4.410156 7.40625 -4.015625 C 7.394531 -3.628906 7.390625 -3.226562 7.390625 -2.8125 C 7.390625 -0.9375 6.460938 0 4.609375 0 C 3.722656 0 3.035156 -0.238281 2.546875 -0.71875 C 2.066406 -1.207031 1.835938 -1.914062 1.859375 -2.84375 C 1.878906 -3.75 1.898438 -4.609375 1.921875 -5.421875 C 1.941406 -6.242188 1.972656 -7.03125 2.015625 -7.78125 C 2.285156 -11.6875 2.78125 -14.769531 3.5 -17.03125 C 4.21875 -19.300781 5.164062 -20.910156 6.34375 -21.859375 C 7.519531 -22.804688 8.925781 -23.28125 10.5625 -23.28125 Z M 7.484375 -9.078125 L 13.15625 -9.078125 C 13.019531 -11.546875 12.816406 -13.46875 12.546875 -14.84375 C 12.285156 -16.226562 11.953125 -17.203125 11.546875 -17.765625 C 11.140625 -18.328125 10.660156 -18.609375 10.109375 -18.609375 C 9.554688 -18.609375 9.097656 -18.328125 8.734375 -17.765625 C 8.367188 -17.203125 8.09375 -16.226562 7.90625 -14.84375 C 7.71875 -13.46875 7.578125 -11.546875 7.484375 -9.078125 Z M 7.484375 -9.078125 "/></g></g></g><g fill="#000000" fill-opacity="1"><g transform="translate(169.080156, 235.709588)"><g><path d="M 17.5625 -22.953125 C 19.363281 -22.953125 20.242188 -22.015625 20.203125 -20.140625 C 20.179688 -14.378906 20.179688 -8.601562 20.203125 -2.8125 C 20.222656 -1.90625 19.988281 -1.207031 19.5 -0.71875 C 19.019531 -0.238281 18.328125 0 17.421875 0 L 16.921875 0 C 15.378906 0 14.273438 -0.695312 13.609375 -2.09375 L 7.21875 -15.375 L 7.15625 -15.375 C 7.195312 -13.03125 7.257812 -10.863281 7.34375 -8.875 C 7.4375 -6.882812 7.550781 -4.898438 7.6875 -2.921875 C 7.789062 -0.972656 6.953125 0 5.171875 0 C 4.304688 0 3.640625 -0.238281 3.171875 -0.71875 C 2.710938 -1.207031 2.492188 -1.90625 2.515625 -2.8125 C 2.535156 -8.601562 2.535156 -14.378906 2.515625 -20.140625 C 2.492188 -21.046875 2.722656 -21.738281 3.203125 -22.21875 C 3.691406 -22.707031 4.390625 -22.953125 5.296875 -22.953125 L 6.984375 -22.953125 C 8.535156 -22.953125 9.640625 -22.257812 10.296875 -20.875 L 15.46875 -10.109375 L 15.53125 -10.109375 C 15.488281 -11.910156 15.421875 -13.628906 15.328125 -15.265625 C 15.242188 -16.898438 15.144531 -18.492188 15.03125 -20.046875 C 14.90625 -21.984375 15.75 -22.953125 17.5625 -22.953125 Z M 17.5625 -22.953125 "/></g></g></g><g fill="#000000" fill-opacity="1"><g transform="translate(198.493444, 235.709588)"><g><path d="M 10.03125 0.03125 L 5.296875 0 C 3.421875 0 2.484375 -0.914062 2.484375 -2.75 C 2.484375 -3.5 2.488281 -4.351562 2.5 -5.3125 C 2.507812 -6.269531 2.519531 -7.410156 2.53125 -8.734375 C 2.539062 -10.066406 2.546875 -11.648438 2.546875 -13.484375 C 2.546875 -15.316406 2.546875 -17.488281 2.546875 -20 C 2.546875 -21.96875 3.484375 -22.953125 5.359375 -22.953125 L 10.03125 -22.953125 C 12.550781 -22.953125 14.585938 -22.582031 16.140625 -21.84375 C 17.703125 -21.101562 18.847656 -19.914062 19.578125 -18.28125 C 20.304688 -16.644531 20.671875 -14.484375 20.671875 -11.796875 C 20.671875 -7.773438 19.835938 -4.800781 18.171875 -2.875 C 16.503906 -0.957031 13.789062 0.0078125 10.03125 0.03125 Z M 8.71875 -4.578125 L 9.90625 -4.578125 C 11.625 -4.578125 12.828125 -5.175781 13.515625 -6.375 C 14.203125 -7.582031 14.546875 -9.289062 14.546875 -11.5 C 14.546875 -13.195312 14.40625 -14.546875 14.125 -15.546875 C 13.851562 -16.554688 13.378906 -17.28125 12.703125 -17.71875 C 12.023438 -18.164062 11.09375 -18.390625 9.90625 -18.390625 L 8.71875 -18.390625 C 8.71875 -17.640625 8.707031 -16.828125 8.6875 -15.953125 C 8.675781 -15.078125 8.671875 -14.023438 8.671875 -12.796875 C 8.671875 -11.578125 8.671875 -10.015625 8.671875 -8.109375 C 8.671875 -7.515625 8.671875 -6.921875 8.671875 -6.328125 C 8.671875 -5.734375 8.6875 -5.148438 8.71875 -4.578125 Z M 8.71875 -4.578125 "/></g></g></g><g fill="#000000" fill-opacity="1"><g transform="translate(227.509272, 235.709588)"><g><path d="M 8.671875 -4.40625 C 9.648438 -4.425781 10.625 -4.4375 11.59375 -4.4375 C 12.5625 -4.4375 13.507812 -4.445312 14.4375 -4.46875 C 16.320312 -4.46875 17.265625 -3.726562 17.265625 -2.25 C 17.265625 -0.75 16.320312 0 14.4375 0 L 5.296875 0 C 4.390625 0 3.691406 -0.238281 3.203125 -0.71875 C 2.722656 -1.207031 2.492188 -1.90625 2.515625 -2.8125 C 2.515625 -4.269531 2.519531 -5.722656 2.53125 -7.171875 C 2.539062 -8.617188 2.546875 -10.0625 2.546875 -11.5 C 2.546875 -12.925781 2.539062 -14.363281 2.53125 -15.8125 C 2.519531 -17.257812 2.515625 -18.703125 2.515625 -20.140625 C 2.492188 -21.046875 2.722656 -21.738281 3.203125 -22.21875 C 3.691406 -22.707031 4.390625 -22.953125 5.296875 -22.953125 L 14.109375 -22.953125 C 15.984375 -22.953125 16.921875 -22.210938 16.921875 -20.734375 C 16.921875 -19.234375 15.984375 -18.484375 14.109375 -18.484375 C 13.222656 -18.503906 12.320312 -18.515625 11.40625 -18.515625 C 10.488281 -18.515625 9.578125 -18.523438 8.671875 -18.546875 L 8.671875 -13.484375 C 9.378906 -13.503906 10.078125 -13.515625 10.765625 -13.515625 C 11.453125 -13.515625 12.125 -13.523438 12.78125 -13.546875 C 14.664062 -13.546875 15.609375 -12.804688 15.609375 -11.328125 C 15.609375 -9.828125 14.664062 -9.078125 12.78125 -9.078125 C 12.125 -9.097656 11.453125 -9.109375 10.765625 -9.109375 C 10.078125 -9.109375 9.378906 -9.117188 8.671875 -9.140625 Z M 8.671875 -4.40625 "/></g></g></g><g fill="#000000" fill-opacity="1"><g transform="translate(252.914871, 235.709588)"><g><path d="M 8.671875 -4.84375 C 9.296875 -4.863281 9.914062 -4.878906 10.53125 -4.890625 C 11.15625 -4.898438 11.773438 -4.914062 12.390625 -4.9375 C 14.304688 -5 15.265625 -4.203125 15.265625 -2.546875 C 15.265625 -0.847656 14.328125 0 12.453125 0 L 5.296875 0 C 4.390625 0 3.691406 -0.238281 3.203125 -0.71875 C 2.722656 -1.207031 2.492188 -1.90625 2.515625 -2.8125 C 2.515625 -4.269531 2.519531 -5.722656 2.53125 -7.171875 C 2.539062 -8.617188 2.546875 -10.0625 2.546875 -11.5 C 2.546875 -12.925781 2.539062 -14.363281 2.53125 -15.8125 C 2.519531 -17.257812 2.515625 -18.703125 2.515625 -20.140625 C 2.492188 -21.046875 2.722656 -21.738281 3.203125 -22.21875 C 3.691406 -22.707031 4.390625 -22.953125 5.296875 -22.953125 L 5.890625 -22.953125 C 7.773438 -22.953125 8.71875 -22.015625 8.71875 -20.140625 C 8.71875 -18.703125 8.707031 -17.257812 8.6875 -15.8125 C 8.675781 -14.363281 8.671875 -12.925781 8.671875 -11.5 Z M 8.671875 -4.84375 "/></g></g></g><g fill="#000000" fill-opacity="1"><g transform="translate(275.902618, 235.709588)"><g><path d="M 10.5625 -23.28125 C 12 -23.28125 13.257812 -22.941406 14.34375 -22.265625 C 15.425781 -21.597656 16.332031 -20.488281 17.0625 -18.9375 C 17.789062 -17.394531 18.347656 -15.320312 18.734375 -12.71875 C 19.117188 -10.113281 19.34375 -6.867188 19.40625 -2.984375 C 19.425781 -2.035156 19.191406 -1.300781 18.703125 -0.78125 C 18.222656 -0.257812 17.53125 0 16.625 0 L 16.125 0 C 14.25 0 13.3125 -0.859375 13.3125 -2.578125 C 13.3125 -3.023438 13.3125 -3.457031 13.3125 -3.875 C 13.3125 -4.289062 13.300781 -4.710938 13.28125 -5.140625 L 7.421875 -5.140625 C 7.421875 -4.785156 7.414062 -4.410156 7.40625 -4.015625 C 7.394531 -3.628906 7.390625 -3.226562 7.390625 -2.8125 C 7.390625 -0.9375 6.460938 0 4.609375 0 C 3.722656 0 3.035156 -0.238281 2.546875 -0.71875 C 2.066406 -1.207031 1.835938 -1.914062 1.859375 -2.84375 C 1.878906 -3.75 1.898438 -4.609375 1.921875 -5.421875 C 1.941406 -6.242188 1.972656 -7.03125 2.015625 -7.78125 C 2.285156 -11.6875 2.78125 -14.769531 3.5 -17.03125 C 4.21875 -19.300781 5.164062 -20.910156 6.34375 -21.859375 C 7.519531 -22.804688 8.925781 -23.28125 10.5625 -23.28125 Z M 7.484375 -9.078125 L 13.15625 -9.078125 C 13.019531 -11.546875 12.816406 -13.46875 12.546875 -14.84375 C 12.285156 -16.226562 11.953125 -17.203125 11.546875 -17.765625 C 11.140625 -18.328125 10.660156 -18.609375 10.109375 -18.609375 C 9.554688 -18.609375 9.097656 -18.328125 8.734375 -17.765625 C 8.367188 -17.203125 8.09375 -16.226562 7.90625 -14.84375 C 7.71875 -13.46875 7.578125 -11.546875 7.484375 -9.078125 Z M 7.484375 -9.078125 "/></g></g></g></svg>